<?xml version="1.0" encoding="utf-8"?>
<!-- Generator: Adobe Illustrator 19.2.0, SVG Export Plug-In . SVG Version: 6.00 Build 0)  -->
<svg version="1.1" id="Layer_1" xmlns="http://www.w3.org/2000/svg" xmlns:xlink="http://www.w3.org/1999/xlink" x="0px" y="0px"
	 viewBox="0 0 128 128" style="enable-background:new 0 0 128 128;" xml:space="preserve">
<path d="M-7.5,7.7c-0.7-2-2.2-3.6-4.2-4.4C-11.8,2-12.9,1.1-14.2,1c-1.5-0.1-2.5,0.9-3.4,1.9c-0.4,0.4-0.9,0.9-1.4,1.3
	c-1.2,0.9-2.1,2.1-2.6,3.5c-1.1,0.2-2,1.1-2,2.3c0,1.1,0.8,2.1,1.9,2.3c0.9,3.1,3.8,5.4,7.1,5.4c3.4,0,6.2-2.3,7.1-5.4
	c1.1-0.2,1.9-1.1,1.9-2.3C-5.5,8.8-6.4,7.8-7.5,7.7z M-21.9,10.9c-0.3-0.2-0.4-0.5-0.4-0.9c0-0.4,0.2-0.7,0.5-0.9
	c-0.1,0.4-0.1,0.7-0.1,1.1C-21.9,10.4-21.9,10.6-21.9,10.9z M-14.5,16.4c-3.5,0-6.3-2.8-6.3-6.3c0-2,0.9-3.8,2.6-5.1
	c0.6-0.4,1-0.9,1.5-1.4c0.8-0.9,1.5-1.5,2.4-1.5c0,0,0.1,0,0.1,0c0.8,0,1.4,0.6,1.4,1.4c0,0,0,0,0,0c0,0,0,0,0,0.1
	c-0.1,0.7-0.7,1.3-1.4,1.3c-0.3,0-0.5-0.2-0.6-0.3c-0.2-0.2-0.6-0.3-0.8-0.1c-0.2,0.2-0.3,0.6-0.1,0.8c0.3,0.3,0.8,0.7,1.5,0.7
	c1.1,0,2-0.7,2.4-1.6c2.2,1,3.6,3.2,3.6,5.7C-8.2,13.6-11,16.4-14.5,16.4z M-7.1,10.9c0-0.2,0-0.5,0-0.7c0-0.4,0-0.8-0.1-1.1
	c0.3,0.2,0.5,0.6,0.5,0.9C-6.6,10.3-6.8,10.6-7.1,10.9z M-15.5,8.9c-0.2-0.2-0.6-0.2-0.8,0c-0.5,0.5-1.3,0.5-1.8,0
	c-0.2-0.2-0.6-0.2-0.8,0c-0.2,0.2-0.2,0.6,0,0.8c0.5,0.5,1.1,0.7,1.7,0.7s1.3-0.3,1.7-0.7C-15.3,9.5-15.3,9.1-15.5,8.9z M-10.9,8.9
	c-0.2,0.2-0.6,0.4-0.9,0.4l0,0c-0.3,0-0.7-0.1-0.9-0.4c-0.2-0.2-0.6-0.2-0.8,0c-0.2,0.2-0.2,0.6,0,0.8c0.5,0.5,1.1,0.7,1.7,0.7l0,0
	c0.6,0,1.3-0.3,1.7-0.7c0.2-0.2,0.2-0.6,0-0.8C-10.3,8.7-10.7,8.7-10.9,8.9z M-13.6,13.4c-0.6,0.2-1.2,0.2-1.7,0
	c-0.3-0.1-0.6,0-0.7,0.3c-0.1,0.3,0,0.6,0.3,0.7c0.4,0.2,0.9,0.2,1.3,0.2s0.9-0.1,1.3-0.2c0.3-0.1,0.4-0.4,0.3-0.7
	C-13,13.4-13.3,13.2-13.6,13.4z"/>
<path d="M101.5,51.5C97.7,41,89.7,32.3,79.1,27.9c-0.8-6.5-6.3-11.6-13.3-11.9c-8.1-0.3-13.2,4.9-18.1,10c-2.3,2.3-4.6,4.7-7.3,6.8
	c-6.5,4.9-11.3,11.4-13.8,18.8c-5.9,0.9-10.5,6-10.5,12.2c0,6,4.3,11,9.9,12.1C30.7,92.3,46,104.4,64,104.4
	c18,0,33.3-12.1,38.1-28.6c5.6-1.1,9.9-6.1,9.9-12.1C112,57.5,107.4,52.4,101.5,51.5z M24.5,68.6c-1.4-1.1-2.4-2.9-2.4-4.8
	c0-2.1,1-3.9,2.6-5c-0.3,2-0.5,3.9-0.5,6C24.3,66,24.4,67.3,24.5,68.6z M64,98.3c-18.5,0-33.6-15.1-33.6-33.6c0-10.6,5-20.5,13.6-27
	c3.1-2.3,5.6-4.9,8-7.4c4.4-4.5,7.9-8.2,13-8.2c0.1,0,0.3,0,0.5,0c4.3,0.2,7.5,3.4,7.5,7.4c0,0.1,0,0.1,0,0.2c0,0.1,0,0.3,0,0.4
	c-0.3,3.8-3.5,6.8-7.4,6.8c-1.3,0-2.6-0.9-3.1-1.5c-1-1.3-3-1.6-4.3-0.5c-1.3,1-1.6,3-0.5,4.3c1.4,1.8,4.3,3.9,7.9,3.9
	c5.8,0,10.7-3.6,12.6-8.7C90,39.8,97.6,51.6,97.6,64.7C97.6,83.2,82.5,98.3,64,98.3z M103.5,68.6c0.1-1.3,0.2-2.6,0.2-3.9
	c0-2-0.2-4-0.5-6c1.6,1.1,2.6,3,2.6,5C105.9,65.7,104.9,67.4,103.5,68.6z M58.7,58.2c-1.2-1.2-3.1-1.2-4.3,0c-2.6,2.6-7,2.6-9.6,0
	c-1.2-1.2-3.1-1.2-4.3,0c-1.2,1.2-1.2,3.1,0,4.3c2.4,2.4,5.7,3.8,9.1,3.8c3.4,0,6.7-1.3,9.1-3.8C59.9,61.3,59.9,59.4,58.7,58.2z
	 M83.2,58.2c-1.3,1.3-3,2-4.8,2l0,0c-1.8,0-3.5-0.7-4.8-2c-1.2-1.2-3.1-1.2-4.3,0c-1.2,1.2-1.2,3.1,0,4.3c2.4,2.4,5.7,3.8,9.1,3.8
	l0,0c3.4,0,6.7-1.3,9.1-3.8c1.2-1.2,1.2-3.1,0-4.3C86.3,57,84.4,57,83.2,58.2z M68.7,81.9c-3,1.2-6.3,1.2-9.3,0
	c-1.6-0.6-3.4,0.1-4,1.7c-0.6,1.6,0.1,3.4,1.7,4c2.2,0.9,4.6,1.3,6.9,1.3c2.3,0,4.7-0.4,6.9-1.3c1.6-0.6,2.3-2.4,1.7-4
	C72,82.1,70.2,81.3,68.7,81.9z"/>
</svg>
